<svg width="1920" height="1000" viewBox="0 0 1920 1000" fill="none" xmlns="http://www.w3.org/2000/svg">
<g id="&#208;&#161;&#208;&#187;&#208;&#190;&#208;&#185; 1">
<path id="Vector" d="M1238.64 166.657H681.479L598.182 250.017L681.479 333.313H1238.64L1322 250.017L1238.64 166.657Z" stroke="white" stroke-width="1.5" stroke-linecap="round" stroke-linejoin="round"/>
<path id="Vector_2" d="M1238.64 500.029H681.479L598.182 583.326L681.479 666.685H1238.64L1322 583.326L1238.64 500.029Z" stroke="white" stroke-width="1.5" stroke-linecap="round" stroke-linejoin="round"/>
<path id="Vector_3" d="M1238.64 833.344H681.479L598.182 916.703L681.479 1000H1238.64L1322 916.703L1238.64 833.344Z" stroke="white" stroke-width="1.5" stroke-linecap="round" stroke-linejoin="round"/>
<path id="Vector_4" d="M514.823 166.656H-42.2733L-125.633 83.3595L-42.2733 0H514.823L598.183 83.3595L514.823 166.656Z" stroke="white" stroke-width="1.5" stroke-linecap="round" stroke-linejoin="round"/>
<path id="Vector_5" d="M514.823 500.03H-42.2733L-125.633 416.67L-42.2733 333.311H514.823L598.183 416.67L514.823 500.03Z" stroke="white" stroke-width="1.5" stroke-linecap="round" stroke-linejoin="round"/>
<path id="Vector_6" d="M514.823 833.342H-42.2733L-125.633 750.046L-42.2733 666.687H514.823L598.183 750.046L514.823 833.342Z" stroke="white" stroke-width="1.5" stroke-linecap="round" stroke-linejoin="round"/>
<path id="Vector_7" d="M1962.45 166.656H1405.3L1322 83.3595L1405.3 0H1962.45L2045.75 83.3595L1962.45 166.656Z" stroke="white" stroke-width="1.5" stroke-linecap="round" stroke-linejoin="round"/>
<path id="Vector_8" d="M1962.45 500.03H1405.3L1322 416.67L1405.3 333.311H1962.45L2045.75 416.67L1962.45 500.03Z" stroke="white" stroke-width="1.5" stroke-linecap="round" stroke-linejoin="round"/>
<path id="Vector_9" d="M1962.45 833.342H1405.3L1322 750.046L1405.3 666.687H1962.45L2045.75 750.046L1962.45 833.342Z" stroke="white" stroke-width="1.5" stroke-linecap="round" stroke-linejoin="round"/>
<path id="Vector_10" d="M1071.98 0H848.199L764.84 83.3595L848.199 166.656H1071.98L1155.28 83.3595L1071.98 0Z" stroke="white" stroke-width="1.5" stroke-linecap="round" stroke-linejoin="round"/>
<path id="Vector_11" d="M1071.98 333.311H848.199L764.84 416.67L848.199 500.03H1071.98L1155.28 416.67L1071.98 333.311Z" stroke="white" stroke-width="1.5" stroke-linecap="round" stroke-linejoin="round"/>
<path id="Vector_12" d="M1071.98 666.687H848.199L764.84 750.046L848.199 833.342H1071.98L1155.28 750.046L1071.98 666.687Z" stroke="white" stroke-width="1.5" stroke-linecap="round" stroke-linejoin="round"/>
<path id="Vector_13" d="M348.168 333.313H124.384L41.0244 250.017L124.384 166.657H348.168L431.465 250.017L348.168 333.313Z" stroke="white" stroke-width="1.5" stroke-linecap="round" stroke-linejoin="round"/>
<path id="Vector_14" d="M348.168 666.685H124.384L41.0244 583.326L124.384 500.029H348.168L431.465 583.326L348.168 666.685Z" stroke="white" stroke-width="1.5" stroke-linecap="round" stroke-linejoin="round"/>
<path id="Vector_15" d="M348.168 1000H124.384L41.0244 916.703L124.384 833.344H348.168L431.465 916.703L348.168 1000Z" stroke="white" stroke-width="1.5" stroke-linecap="round" stroke-linejoin="round"/>
<path id="Vector_16" d="M1795.73 333.313H1571.95L1488.65 250.017L1571.95 166.657H1795.73L1879.09 250.017L1795.73 333.313Z" stroke="white" stroke-width="1.5" stroke-linecap="round" stroke-linejoin="round"/>
<path id="Vector_17" d="M1795.73 666.685H1571.95L1488.65 583.326L1571.95 500.029H1795.73L1879.09 583.326L1795.73 666.685Z" stroke="white" stroke-width="1.5" stroke-linecap="round" stroke-linejoin="round"/>
<path id="Vector_18" d="M1795.73 1000H1571.95L1488.65 916.703L1571.95 833.344H1795.73L1879.09 916.703L1795.73 1000Z" stroke="white" stroke-width="1.5" stroke-linecap="round" stroke-linejoin="round"/>
<path id="Vector_19" d="M-375.648 166.656L-208.992 0L-42.273 166.656H124.383L-42.273 333.312L-208.992 166.656H-375.648Z" stroke="white" stroke-width="1.5" stroke-linecap="round" stroke-linejoin="round"/>
<path id="Vector_20" d="M-375.648 500.03L-208.992 333.311L-42.273 500.03H124.383L-42.273 666.686L-208.992 500.03H-375.648Z" stroke="white" stroke-width="1.5" stroke-linecap="round" stroke-linejoin="round"/>
<path id="Vector_21" d="M-375.648 833.342L-208.992 666.687L-42.273 833.342H124.383L-42.273 999.999L-208.992 833.342H-375.648Z" stroke="white" stroke-width="1.5" stroke-linecap="round" stroke-linejoin="round"/>
<path id="Vector_22" d="M1071.98 166.656L1238.64 0L1405.3 166.656H1571.95L1405.3 333.312L1238.64 166.656H1071.98Z" stroke="white" stroke-width="1.5" stroke-linecap="round" stroke-linejoin="round"/>
<path id="Vector_23" d="M1071.98 500.03L1238.64 333.311L1405.3 500.03H1571.95L1405.3 666.686L1238.64 500.03H1071.98Z" stroke="white" stroke-width="1.5" stroke-linecap="round" stroke-linejoin="round"/>
<path id="Vector_24" d="M1071.98 833.342L1238.64 666.687L1405.3 833.342H1571.95L1405.3 999.999L1238.64 833.342H1071.98Z" stroke="white" stroke-width="1.5" stroke-linecap="round" stroke-linejoin="round"/>
<path id="Vector_25" d="M348.168 166.656L514.824 333.312L681.48 166.656H848.199L681.48 0L514.824 166.656H348.168Z" stroke="white" stroke-width="1.5" stroke-linecap="round" stroke-linejoin="round"/>
<path id="Vector_26" d="M348.168 500.03L514.824 666.686L681.48 500.03H848.199L681.48 333.311L514.824 500.03H348.168Z" stroke="white" stroke-width="1.5" stroke-linecap="round" stroke-linejoin="round"/>
<path id="Vector_27" d="M348.168 833.342L514.824 999.999L681.48 833.342H848.199L681.48 666.687L514.824 833.342H348.168Z" stroke="white" stroke-width="1.5" stroke-linecap="round" stroke-linejoin="round"/>
<path id="Vector_28" d="M1795.74 166.656L1962.45 333.312L2129.11 166.656H2295.77L2129.11 0L1962.45 166.656H1795.74Z" stroke="white" stroke-width="1.5" stroke-linecap="round" stroke-linejoin="round"/>
<path id="Vector_29" d="M1795.74 500.03L1962.45 666.686L2129.11 500.03H2295.77L2129.11 333.311L1962.45 500.03H1795.74Z" stroke="white" stroke-width="1.5" stroke-linecap="round" stroke-linejoin="round"/>
<path id="Vector_30" d="M1795.74 833.342L1962.45 999.999L2129.11 833.342H2295.77L2129.11 666.687L1962.45 833.342H1795.74Z" stroke="white" stroke-width="1.5" stroke-linecap="round" stroke-linejoin="round"/>
</g>
</svg>
